<?xml version="1.0" encoding="UTF-8"?>
<svg width="30px" height="30px" viewBox="0 0 30 30" version="1.1" xmlns="http://www.w3.org/2000/svg" xmlns:xlink="http://www.w3.org/1999/xlink">
    <!-- Generator: Sketch 53.2 (72643) - https://sketchapp.com -->
    <title>Oval Copy 4</title>
    <desc>Created with Sketch.</desc>
    <defs>
        <path d="M8.36635378,16.0815032 C8.36635378,16.0815032 5,12.8778758 5,10.4674831 C5,8.05709032 6.50716792,7 8.36635378,7 C10.2255396,7 11.7327076,8.05709032 11.7327076,10.4674831 C11.7327076,12.8778758 8.36635378,16.0815032 8.36635378,16.0815032 Z M8.36635378,12.1638127 C9.46796938,12.1638127 10.3610053,11.2877519 10.3610053,10.2070763 C10.3610053,9.1264006 9.46796938,8.25033988 8.36635378,8.25033988 C7.26473817,8.25033988 6.37170227,9.1264006 6.37170227,10.2070763 C6.37170227,11.2877519 7.26473817,12.1638127 8.36635378,12.1638127 Z M20.336846,23.8609624 C20.336846,23.8609624 14.673692,18.4715599 14.673692,14.4166013 C14.673692,10.3616426 17.2091724,8.58331937 20.336846,8.58331937 C23.4645196,8.58331937 26,10.3616426 26,14.4166013 C26,18.4715599 20.336846,23.8609624 20.336846,23.8609624 Z M20.336846,17.2703048 C22.1900733,17.2703048 23.6924109,15.7965243 23.6924109,13.9785238 C23.6924109,12.1605233 22.1900733,10.6867428 20.336846,10.6867428 C18.4836187,10.6867428 16.9812811,12.1605233 16.9812811,13.9785238 C16.9812811,15.7965243 18.4836187,17.2703048 20.336846,17.2703048 Z M9.36287484,16.7481022 C9.01525578,16.7564703 8.72653966,16.4868097 8.71800934,16.1457984 C8.70947902,15.804787 8.98436475,15.5215589 9.33198382,15.5131907 C10.1960316,15.4923906 10.9214105,15.7776107 11.5390572,16.3366345 C11.7946234,16.5679441 11.8106539,16.9586968 11.5748623,17.2094051 C11.3390707,17.4601135 10.9407465,17.4758392 10.6851802,17.2445297 C10.301404,16.8971789 9.88999656,16.7354129 9.36287484,16.7481022 Z M11.6686223,18.5877008 C11.4995216,18.2896396 11.6087466,17.9135357 11.9125832,17.7476493 C12.2164199,17.5817629 12.5998114,17.6889117 12.7689122,17.9869729 C12.8481905,18.1267109 12.9297514,18.2752342 13.0228836,18.4486511 C13.054712,18.5079171 13.4464341,19.2475555 13.5648526,19.4643406 C13.595756,19.5209146 13.6258054,19.5754278 13.6553269,19.6284416 C13.822029,19.9278003 13.7097872,20.3030485 13.4046279,20.4665818 C13.0994687,20.6301152 12.7169494,20.520007 12.5502473,20.2206483 C12.5190542,20.1646327 12.4874021,20.1072119 12.4549458,20.0477951 C12.3319717,19.8226701 11.9372925,19.0774481 11.9088159,19.0244233 C11.8198467,18.8587581 11.742679,18.7182349 11.6686223,18.5877008 Z M13.6327698,21.8635118 C13.4150734,21.59752 13.4584028,21.2087679 13.7295486,20.9952095 C14.0006945,20.7816512 14.3969794,20.824157 14.6146758,21.0901488 C14.99238,21.5516458 15.3972197,21.9117754 15.8556417,22.180047 C16.1542664,22.3548042 16.2519358,22.7339544 16.0737924,23.0269028 C15.895649,23.3198511 15.5091521,23.4156639 15.2105274,23.2409067 C14.6150198,22.8924117 14.0996215,22.4339335 13.6327698,21.8635118 Z M17.2757648,23.9372468 C16.9313317,23.8904298 16.6908016,23.5785663 16.7385258,23.2406803 C16.78625,22.9027943 17.1041563,22.6668363 17.4485895,22.7136533 C17.6974594,22.747481 18.3594724,22.7647168 18.6364247,22.7647168 C18.9841484,22.7647168 19.2660341,23.0412443 19.2660341,23.3823584 C19.2660341,23.7234724 18.9841484,24 18.6364247,24 C18.3024712,24 17.5827536,23.9789742 17.2757648,23.9372468 Z" id="path-1"></path>
    </defs>
    <g id="My-Bouncie" stroke="none" stroke-width="1" fill="none" fill-rule="evenodd">
        <g id="1.2.0--Selected-Trip-Details---Events---03" transform="translate(-705.000000, -586.000000)">
            <g id="trip-details-events" transform="translate(665.000000, 431.000000)">
                <g id="drive-bar-copy-8" transform="translate(24.000000, 140.000000)">
                    <g id="Group-22-Copy-2" transform="translate(16.000000, 15.000000)">
                        <g id="Group-22-Copy">
                            <g id="Oval-Copy-4">
                                <g id="Group-9">
                                    <circle id="Oval-Copy-3" fill="#F03B3B" cx="15" cy="15" r="15"></circle>
                                    <mask id="mask-2" fill="white">
                                        <use xlink:href="#path-1"></use>
                                    </mask>
                                    <use id="Combined-Shape" fill="#FFFFFF" xlink:href="#path-1"></use>
                                </g>
                            </g>
                        </g>
                    </g>
                </g>
            </g>
        </g>
    </g>
</svg>