<?xml version="1.0" encoding="UTF-8"?>
<svg width="30px" height="30px" viewBox="0 0 30 30" version="1.1" xmlns="http://www.w3.org/2000/svg" xmlns:xlink="http://www.w3.org/1999/xlink">
    <!-- Generator: Sketch 53.2 (72643) - https://sketchapp.com -->
    <title>geo-zones-icon-circle</title>
    <desc>Created with Sketch.</desc>
    <defs>
        <path d="M19.2498712,17.9764303 C19.4767952,17.6521389 19.6908983,17.329498 19.8911118,17.0089387 C22.2068462,17.6713438 23.7372115,18.8157571 23.7372115,20.2223641 C23.7372115,22.4785015 19.8000739,24.0600986 15,24.0600986 C10.1999261,24.0600986 6.26278846,22.4785015 6.26278846,20.2223641 C6.26278846,18.7824441 7.86649996,17.6172842 10.2747316,16.9626892 C10.4747949,17.284962 10.6889664,17.6093624 10.9161581,17.9354514 C8.77261371,18.450268 7.35887717,19.3335137 7.35887717,20.2223641 C7.35887717,21.5999181 10.7545696,22.9640099 15,22.9640099 C19.2454304,22.9640099 22.6411228,21.5999181 22.6411228,20.2223641 C22.6411228,19.3566695 21.3000866,18.4962915 19.2498712,17.9764303 Z M15.0973211,21.2078402 C15.0973211,21.2078402 9.54534338,15.821861 9.54534338,11.769478 C9.54534338,7.71709507 12.0310485,5.93990137 15.0973211,5.93990137 C18.1635938,5.93990137 20.6492989,7.71709507 20.6492989,11.769478 C20.6492989,15.821861 15.0973211,21.2078402 15.0973211,21.2078402 Z M15,14.6213689 C16.8168457,14.6213689 18.2896901,13.1485245 18.2896901,11.3316788 C18.2896901,9.51483313 16.8168457,8.04198869 15,8.04198869 C13.1831543,8.04198869 11.7103099,9.51483313 11.7103099,11.3316788 C11.7103099,13.1485245 13.1831543,14.6213689 15,14.6213689 Z" id="path-1"></path>
    </defs>
    <g id="geo-zones-icon-circle" stroke="none" stroke-width="1" fill="none" fill-rule="evenodd">
        <circle id="Oval-10" fill="#1F69F2" cx="15" cy="15" r="15"></circle>
        <mask id="mask-2" fill="white">
            <use xlink:href="#path-1"></use>
        </mask>
        <use id="Combined-Shape" fill="#FFFFFF" fill-rule="nonzero" xlink:href="#path-1"></use>
    </g>
</svg>
