<?xml version="1.0" encoding="utf-8"?>
<!-- Generator: Adobe Illustrator 27.0.0, SVG Export Plug-In . SVG Version: 6.00 Build 0)  -->
<svg version="1.1" id="Layer_1" xmlns="http://www.w3.org/2000/svg" xmlns:xlink="http://www.w3.org/1999/xlink" x="0px" y="0px"
	 viewBox="0 0 20 20" style="enable-background:new 0 0 20 20;" xml:space="preserve">
<style type="text/css">
	.st0{fill:#1F69F2;}
</style>
<path class="st0" d="M13.5,4C12.1,4,11,5.1,11,6.5c0,0.3,0,0.6,0.2,0.9l-3.8,3.8C7.1,11.1,6.8,11,6.5,11C5.1,11,4,12.1,4,13.5
	S5.1,16,6.5,16S9,14.9,9,13.5c0-0.3,0-0.6-0.2-0.9l3.8-3.8C12.9,8.9,13.2,9,13.5,9C14.9,9,16,7.9,16,6.5S14.9,4,13.5,4z"/>
</svg>
