<?xml version="1.0" encoding="UTF-8"?><svg id="a" xmlns="http://www.w3.org/2000/svg" width="30" height="30" viewBox="0 0 30 30"><g id="b"><path id="c" d="M15,18.16c.55,0,1,.45,1,1h0v7.27s2.84-2.52,2.84-2.52l.1-.08c.41-.28,.97-.22,1.31,.16,.37,.41,.33,1.04-.08,1.41h0l-5.16,4.59-5.16-4.59-.09-.09c-.33-.37-.33-.94,0-1.32h0l.09-.09c.37-.33,.94-.33,1.32,0h0l2.84,2.52v-7.27s0-.12,0-.12c.06-.5,.48-.88,.99-.88Zm9-8.49c.41-.37,1.04-.33,1.41,.08h0l4.59,5.16-4.59,5.16-.09,.09c-.37,.33-.94,.33-1.32,0h0l-.09-.09c-.33-.37-.33-.94,0-1.32h0l2.52-2.84h-7.27s-.12,0-.12,0c-.5-.06-.88-.48-.88-.99,0-.55,.45-1,1-1h7.27s-2.52-2.84-2.52-2.84l-.08-.1c-.28-.41-.22-.97,.16-1.31Zm-19.32,0c.37-.33,.94-.33,1.32,0h0l.09,.09c.33,.37,.33,.94,0,1.32h0l-2.52,2.84h7.27s.12,0,.12,0c.5,.06,.88,.48,.88,.99,0,.55-.45,1-1,1H3.56s2.52,2.84,2.52,2.84l.08,.1c.28,.41,.22,.97-.16,1.31-.41,.37-1.04,.33-1.41-.08h0L0,14.92l4.59-5.16,.09-.09ZM15,0l5.16,4.59c.41,.37,.45,1,.08,1.41-.34,.38-.9,.44-1.31,.16l-.1-.08-2.84-2.52v7.27c0,.55-.45,1-1,1-.51,0-.94-.39-.99-.88v-.12s0-7.27,0-7.27l-2.84,2.52c-.38,.34-.95,.33-1.32,0l-.09-.09c-.34-.38-.33-.95,0-1.32l.09-.09L15,0Z" fill="#1f69f2"/></g></svg>