<?xml version="1.0" encoding="utf-8"?>
<!-- Generator: Adobe Illustrator 27.0.0, SVG Export Plug-In . SVG Version: 6.00 Build 0)  -->
<svg version="1.1" id="a" xmlns="http://www.w3.org/2000/svg" xmlns:xlink="http://www.w3.org/1999/xlink" x="0px" y="0px"
	 viewBox="0 0 30 30" style="enable-background:new 0 0 30 30;" xml:space="preserve">
<style type="text/css">
	.st0{fill:#FFFFFF;}
</style>
<g id="b">
	<path id="c" class="st0" d="M15,18.2c0.6,0,1,0.5,1,1l0,0v7.3l2.8-2.5l0.1-0.1c0.4-0.3,1-0.2,1.3,0.2c0.4,0.4,0.3,1-0.1,1.4l0,0
		L15,30l-5.2-4.6l-0.1-0.1c-0.3-0.4-0.3-0.9,0-1.3l0,0l0.1-0.1c0.4-0.3,0.9-0.3,1.3,0l0,0l2.8,2.5v-7.3V19
		C14.1,18.5,14.5,18.1,15,18.2L15,18.2z M24,9.7c0.4-0.4,1-0.3,1.4,0.1l0,0l4.6,5.2l-4.6,5.2l-0.1,0.1c-0.4,0.3-0.9,0.3-1.3,0l0,0
		l-0.1-0.1c-0.3-0.4-0.3-0.9,0-1.3l0,0l2.5-2.8h-7.3H19c-0.5-0.1-0.9-0.5-0.9-1c0-0.6,0.5-1,1-1h7.3l-2.5-2.8L23.8,11
		C23.5,10.6,23.6,10,24,9.7L24,9.7z M4.7,9.7c0.4-0.3,0.9-0.3,1.3,0l0,0l0.1,0.1c0.3,0.4,0.3,0.9,0,1.3l0,0l-2.5,2.8h7.3H11
		c0.5,0.1,0.9,0.5,0.9,1c0,0.6-0.4,1-1,1H3.6l2.5,2.8l0.1,0.1c0.3,0.4,0.2,1-0.2,1.3c-0.4,0.4-1,0.3-1.4-0.1l0,0L0,14.9L4.7,9.7
		L4.7,9.7z M15,0l5.2,4.6c0.4,0.4,0.5,1,0.1,1.4c-0.3,0.4-0.9,0.4-1.3,0.2l-0.1-0.1L16,3.6v7.3c0,0.6-0.4,1-1,1
		c-0.5,0-0.9-0.4-1-0.9v-0.1V3.6l-2.8,2.5c-0.4,0.3-0.9,0.3-1.3,0L9.8,6C9.4,5.6,9.4,5,9.8,4.7l0.1-0.1L15,0z"/>
</g>
</svg>
