<?xml version="1.0" encoding="utf-8"?>
<!-- Generator: Adobe Illustrator 27.0.0, SVG Export Plug-In . SVG Version: 6.00 Build 0)  -->
<svg version="1.1" id="a" xmlns="http://www.w3.org/2000/svg" xmlns:xlink="http://www.w3.org/1999/xlink" x="0px" y="0px"
	 viewBox="0 0 30 30" style="enable-background:new 0 0 30 30;" xml:space="preserve">
<style type="text/css">
	.st0{fill:#FFFFFF;}
</style>
<g id="b">
	<path class="st0" d="M23.8,0c1.5,0,2.6,1.2,2.6,2.7c0,1.1-0.6,2-1.5,2.4l2.5,13.5h0.1c1.4,0.1,2.5,1.2,2.5,2.6s-1.2,2.6-2.6,2.6
		c-0.9,0-1.7-0.4-2.2-1.1L5.3,27.6C5.2,29,4,30,2.7,30C1.2,30,0,28.8,0,27.4s1.1-2.6,2.5-2.6l1.9-9.9c-1-0.4-1.8-1.3-1.8-2.5
		c0-1.5,1.2-2.7,2.7-2.7c1,0,1.9,0.6,2.4,1.5l13.6-7.7c-0.1-0.3-0.1-0.5-0.1-0.8C21.2,1.2,22.4,0,23.8,0L23.8,0z M22.4,4.9L7.8,13.1
		c-0.2,0.8-0.8,1.4-1.6,1.7l-2,10.4c0.3,0.2,0.5,0.4,0.7,0.7L24.7,21c0-0.8,0.4-1.5,1-1.9L23.2,5.2C22.9,5.2,22.7,5,22.4,4.9
		L22.4,4.9z"/>
</g>
</svg>
