<?xml version="1.0" encoding="utf-8"?>
<!-- Generator: Adobe Illustrator 27.0.0, SVG Export Plug-In . SVG Version: 6.00 Build 0)  -->
<svg version="1.1" id="Layer_1" xmlns="http://www.w3.org/2000/svg" xmlns:xlink="http://www.w3.org/1999/xlink" x="0px" y="0px"
	 viewBox="0 0 20 20" style="enable-background:new 0 0 20 20;" xml:space="preserve">
<style type="text/css">
	.st0{fill:#FFFFFF;}
</style>
<path class="st0" d="M15,12.3V7.7c0.6-0.3,1-1,1-1.7c0-1.1-0.9-2-2-2c-0.7,0-1.4,0.4-1.7,1H7.7C7.4,4.4,6.7,4,6,4C4.9,4,4,4.9,4,6
	c0,0.7,0.4,1.4,1,1.7v4.6c-0.6,0.3-1,1-1,1.7c0,1.1,0.9,2,2,2c0.7,0,1.4-0.4,1.7-1h4.6c0.3,0.6,1,1,1.7,1c1.1,0,2-0.9,2-2
	C16,13.3,15.6,12.6,15,12.3z M7,12V8l1-1h4l1,1v4l-1,1H8L7,12z"/>
</svg>
