<?xml version="1.0" encoding="UTF-8"?><svg id="a" xmlns="http://www.w3.org/2000/svg" width="30" height="30" viewBox="0 0 30 30"><g id="b"><path d="M23.82,0c1.46,0,2.65,1.19,2.65,2.65,0,1.06-.62,1.97-1.51,2.39l2.48,13.49h.08c1.38,.09,2.48,1.24,2.48,2.64s-1.19,2.65-2.65,2.65c-.89,0-1.68-.44-2.16-1.11L5.28,27.61c-.13,1.34-1.26,2.39-2.63,2.39-1.46,0-2.65-1.19-2.65-2.65s1.11-2.57,2.5-2.64l1.92-9.86c-1.03-.36-1.77-1.34-1.77-2.5,0-1.46,1.19-2.65,2.65-2.65,1.04,0,1.94,.6,2.37,1.48L21.31,3.48c-.09-.26-.13-.54-.13-.84,0-1.46,1.19-2.65,2.65-2.65Zm-1.41,4.89L7.83,13.12c-.24,.79-.84,1.43-1.61,1.72l-2.02,10.38c.26,.19,.48,.42,.66,.69l19.85-4.89c.05-.79,.44-1.49,1.03-1.94l-2.54-13.86c-.28-.07-.55-.18-.78-.33Z" fill="#1f69f2"/></g></svg>