<?xml version="1.0" encoding="utf-8"?>
<!-- Generator: Adobe Illustrator 27.0.0, SVG Export Plug-In . SVG Version: 6.00 Build 0)  -->
<svg version="1.1" id="a" xmlns="http://www.w3.org/2000/svg" xmlns:xlink="http://www.w3.org/1999/xlink" x="0px" y="0px"
	 viewBox="0 0 30 30" style="enable-background:new 0 0 30 30;" xml:space="preserve">
<style type="text/css">
	.st0{fill:#FFFFFF;}
</style>
<path class="st0" d="M28.6,21.9V8.1c0.8-0.3,1.4-1,1.4-1.9c0-1.1-0.9-2-2-2c-0.8,0-1.6,0.5-1.9,1.3h-9.2c-0.3-0.7-1-1.3-1.9-1.3
	s-1.6,0.5-1.9,1.3H4C3.7,4.7,3,4.2,2.1,4.2c-1.1,0-2,0.9-2,2C0.1,7,0.7,7.7,1.4,8v14c-0.7,0.3-1.3,1-1.3,1.9c0,1.1,0.9,2,2,2
	c0.8,0,1.6-0.5,1.9-1.3h9.2c0.3,0.7,1,1.3,1.9,1.3s1.6-0.5,1.9-1.3h9.2c0.3,0.7,1,1.3,1.9,1.3c1.1,0,2-0.9,2-2
	C30,22.9,29.4,22.2,28.6,21.9z M26.1,23.1h-9.2c-0.3-0.7-1-1.3-1.9-1.3s-1.6,0.5-1.9,1.3H4c-0.2-0.5-0.6-0.9-1.1-1.1V8
	C3.4,7.8,3.8,7.4,4,6.9h9.2c0.3,0.7,1,1.3,1.9,1.3s1.6-0.5,1.9-1.3h9.2c0.2,0.5,0.5,0.8,1,1V22C26.7,22.3,26.3,22.6,26.1,23.1z"/>
</svg>
