<?xml version="1.0" encoding="UTF-8"?>
<svg width="30px" height="30px" viewBox="0 0 30 30" version="1.1" xmlns="http://www.w3.org/2000/svg" xmlns:xlink="http://www.w3.org/1999/xlink">
    <!-- Generator: Sketch 53.2 (72643) - https://sketchapp.com -->
    <title>Group 12</title>
    <desc>Created with Sketch.</desc>
    <defs>
        <path d="M7.36635378,16.0815032 C7.36635378,16.0815032 4,12.8778758 4,10.4674831 C4,8.05709032 5.50716792,7 7.36635378,7 C9.22553963,7 10.7327076,8.05709032 10.7327076,10.4674831 C10.7327076,12.8778758 7.36635378,16.0815032 7.36635378,16.0815032 Z M7.36635378,12.1638127 C8.46796938,12.1638127 9.36100528,11.2877519 9.36100528,10.2070763 C9.36100528,9.1264006 8.46796938,8.25033988 7.36635378,8.25033988 C6.26473817,8.25033988 5.37170227,9.1264006 5.37170227,10.2070763 C5.37170227,11.2877519 6.26473817,12.1638127 7.36635378,12.1638127 Z M19.336846,23.8609624 C19.336846,23.8609624 13.673692,18.4715599 13.673692,14.4166013 C13.673692,10.3616426 16.2091724,8.58331937 19.336846,8.58331937 C22.4645196,8.58331937 25,10.3616426 25,14.4166013 C25,18.4715599 19.336846,23.8609624 19.336846,23.8609624 Z M19.336846,17.2703048 C21.1900733,17.2703048 22.6924109,15.7965243 22.6924109,13.9785238 C22.6924109,12.1605233 21.1900733,10.6867428 19.336846,10.6867428 C17.4836187,10.6867428 15.9812811,12.1605233 15.9812811,13.9785238 C15.9812811,15.7965243 17.4836187,17.2703048 19.336846,17.2703048 Z M8.36287484,16.7481022 C8.01525578,16.7564703 7.72653966,16.4868097 7.71800934,16.1457984 C7.70947902,15.804787 7.98436475,15.5215589 8.33198382,15.5131907 C9.19603158,15.4923906 9.92141051,15.7776107 10.5390572,16.3366345 C10.7946234,16.5679441 10.8106539,16.9586968 10.5748623,17.2094051 C10.3390707,17.4601135 9.94074647,17.4758392 9.68518024,17.2445297 C9.30140398,16.8971789 8.88999656,16.7354129 8.36287484,16.7481022 Z M10.6686223,18.5877008 C10.4995216,18.2896396 10.6087466,17.9135357 10.9125832,17.7476493 C11.2164199,17.5817629 11.5998114,17.6889117 11.7689122,17.9869729 C11.8481905,18.1267109 11.9297514,18.2752342 12.0228836,18.4486511 C12.054712,18.5079171 12.4464341,19.2475555 12.5648526,19.4643406 C12.595756,19.5209146 12.6258054,19.5754278 12.6553269,19.6284416 C12.822029,19.9278003 12.7097872,20.3030485 12.4046279,20.4665818 C12.0994687,20.6301152 11.7169494,20.520007 11.5502473,20.2206483 C11.5190542,20.1646327 11.4874021,20.1072119 11.4549458,20.0477951 C11.3319717,19.8226701 10.9372925,19.0774481 10.9088159,19.0244233 C10.8198467,18.8587581 10.742679,18.7182349 10.6686223,18.5877008 Z M12.6327698,21.8635118 C12.4150734,21.59752 12.4584028,21.2087679 12.7295486,20.9952095 C13.0006945,20.7816512 13.3969794,20.824157 13.6146758,21.0901488 C13.99238,21.5516458 14.3972197,21.9117754 14.8556417,22.180047 C15.1542664,22.3548042 15.2519358,22.7339544 15.0737924,23.0269028 C14.895649,23.3198511 14.5091521,23.4156639 14.2105274,23.2409067 C13.6150198,22.8924117 13.0996215,22.4339335 12.6327698,21.8635118 Z M16.2757648,23.9372468 C15.9313317,23.8904298 15.6908016,23.5785663 15.7385258,23.2406803 C15.78625,22.9027943 16.1041563,22.6668363 16.4485895,22.7136533 C16.6974594,22.747481 17.3594724,22.7647168 17.6364247,22.7647168 C17.9841484,22.7647168 18.2660341,23.0412443 18.2660341,23.3823584 C18.2660341,23.7234724 17.9841484,24 17.6364247,24 C17.3024712,24 16.5827536,23.9789742 16.2757648,23.9372468 Z" id="path-1"></path>
    </defs>
    <g id="My-Bouncie" stroke="none" stroke-width="1" fill="none" fill-rule="evenodd">
        <g id="1.2.0--Selected-Trip-Details---Events---04---Scroll" transform="translate(-706.000000, -947.000000)">
            <g id="trip-details-events" transform="translate(665.000000, 397.000000)">
                <g id="drive-bar-copy-16" transform="translate(24.000000, 535.000000)">
                    <g id="Group-22-Copy-3" transform="translate(17.000000, 15.000000)">
                        <g id="Group-22-Copy">
                            <g id="Group-12">
                                <circle id="Oval-Copy-3" fill="#ACC640" cx="15" cy="15" r="15"></circle>
                                <mask id="mask-2" fill="white">
                                    <use xlink:href="#path-1"></use>
                                </mask>
                                <use id="Combined-Shape" fill="#FFFFFF" xlink:href="#path-1"></use>
                            </g>
                        </g>
                    </g>
                </g>
            </g>
        </g>
    </g>
</svg>