<?xml version="1.0" encoding="UTF-8"?>
<svg width="61px" height="72px" viewBox="0 0 61 72" version="1.1" xmlns="http://www.w3.org/2000/svg" xmlns:xlink="http://www.w3.org/1999/xlink">
    <!-- Generator: Sketch 56.3 (81716) - https://sketch.com -->
    <title>notification-settings</title>
    <desc>Created with Sketch.</desc>
    <defs>
        <path d="M30.7602486,71.3333333 C26.3959527,71.3333333 22.8577792,67.8008176 22.8577792,63.4426855 L38.662718,63.4426855 C38.662718,67.8008176 35.1245445,71.3333333 30.7602486,71.3333333 Z M57.9200913,50.6044316 C59.6488594,51.725827 60.6362566,53.5694363 60.6362566,55.5733595 C60.6362566,58.5463799 58.345495,61.0520854 55.4112795,61.5057736 L21.3041096,61.5057736 L6.90456621,61.5057736 C3.5309589,61.5057736 0.733333333,58.860595 0.733333333,55.4940041 C0.733333333,53.5694363 1.72073059,51.6464717 3.4486758,50.5234731 C5.50575342,49.2417639 8.87936073,44.8331329 8.87936073,30.4048862 C8.87936073,17.306443 16.8188575,11.7932496 22.9324922,9.58332312 C22.8880594,9.24666404 22.8576146,8.9059971 22.8576146,8.55731447 C22.8576146,5.77266286 24.3057973,3.32947975 26.4879452,1.92593198 C26.6064329,1.84577505 26.7315032,1.77523695 26.8549279,1.70309572 C26.9092347,1.67183452 26.9602502,1.63816861 27.0153799,1.60851055 C28.0949342,1.01134145 29.3448146,0.666666667 30.6843836,0.666666667 C30.6975489,0.666666667 30.7098913,0.668269805 30.7230566,0.668269805 C30.7353991,0.668269805 30.7477416,0.666666667 30.760084,0.666666667 C35.1243799,0.666666667 38.6625534,4.1991824 38.6625534,8.55731447 C38.6625534,8.92924261 38.6279945,9.29155191 38.5778018,9.65065494 C44.6708658,12.0321172 52.4894064,17.486796 52.4894064,30.4842416 C52.4894064,44.8331329 55.8630137,49.2417639 57.9200913,50.6044316 Z" id="path-1"></path>
    </defs>
    <g id="Concept---Drive-Alerts" stroke="none" stroke-width="1" fill="none" fill-rule="evenodd">
        <g id="1.1-Drive-Alerts" transform="translate(-438.000000, -250.000000)">
            <g id="Group-8-Copy" transform="translate(270.000000, 66.000000)">
                <g id="icon---notification-settings" transform="translate(168.000000, 184.000000)">
                    <mask id="mask-2" fill="white">
                        <use xlink:href="#path-1"></use>
                    </mask>
                    <g id="fill-color-lightgrey" mask="url(#mask-2)" fill="#E6E6E6">
                        <g transform="translate(-24.000000, -17.000000)" id="Rectangle-6-Copy">
                            <rect x="0" y="0" width="106" height="108"></rect>
                        </g>
                    </g>
                </g>
            </g>
        </g>
    </g>
</svg>
